<?xml version="1.0" encoding="UTF-8" ?>
<svg viewBox="0 0 457 610" xmlns="http://www.w3.org/2000/svg">
<text x="15" y="151.0"
style="fill:#000000; stroke: #000000; font-size: 6px;">
Digital Manufacturing
</text>
<text x="209.0" y="41.0"
style="fill:#000000; stroke: #000000; font-size: 10px;">
QAQ
</text>
<text x="37.0" y="119.0"
style="fill:None; stroke: #000000; font-size: %34px;">
C
</text>
<path fill="none" stroke="red" d="M 111.0,14.6 L 120.6,24.2 L130.2,14.6 L139.79999999999998,24.2 L149.39999999999998,14.6 L158.99999999999997,24.2"/>
<path fill="none" stroke="red" d="M 111.0,30.6 L 120.6,40.2 L130.2,30.6 L139.79999999999998,40.2 L149.39999999999998,30.6 L158.99999999999997,40.2"/>
<path fill="none" stroke="red" d="M 111.0,30.6 L 120.6,40.2 L130.2,30.6 L139.79999999999998,40.2 L149.39999999999998,30.6 L158.99999999999997,40.2"/>
<path fill="none" stroke="red" d="M 111.0,46.6 L 120.6,56.2 L130.2,46.6 L139.79999999999998,56.2 L149.39999999999998,46.6 L158.99999999999997,56.2"/>
<polyline points="5,5 85.0,5 85.0,30.0 82.0,30.0 82.0,43.5 
78.65,43.5 78.65,42.0 76.65,42.0 76.65,48.0 78.65,48.0 78.65,46.5 
82.0,46.5 82.0,60.0 85.0,60.0 85.0,85.0 60.0,85.0 60.0,82.0 
46.5,82.0 46.5,78.65 48.0,78.65 48.0,76.65 42.0,76.65 42.0,78.65 
43.5,78.65 43.5,82.0 30.0,82.0 30.0,85.0 5,85.0 5,60.0 
8.0,60.0 8.0,46.5 11.35,46.5 11.35,48.0 13.35,48.0 13.35,42.0 
11.35,42.0 11.35,43.5 8.0,43.5 8.0,30.0 5,30.0 5,5"
stroke="black" stroke-width="1" fill="none" />
<polyline points="98.0,5 172.0,5 172.0,30.0 175.0,30.0 175.0,43.5 
171.0,43.5 171.0,46.5 175.0,46.5 175.0,60.0 172.0,60.0 172.0,85.0 
150.0,85.0 150.0,82.0 136.5,82.0 136.5,78.65 138.0,78.65 138.0,76.65 
132.0,76.65 132.0,78.65 133.5,78.65 133.5,82.0 120.0,82.0 120.0,85.0 
98.0,85.0 98.0,60.0 95.0,60.0 95.0,46.5 99.0,46.5 99.0,43.5 
95.0,43.5 95.0,30.0 98.0,30.0 98.0,5" stroke="black" stroke-width="1" fill="none" /> 
<polyline points="5,95.0 85.0,95.0 85.0,120.0 82.0,120.0 82.0,133.5 
78.65,133.5 78.65,132.0 76.65,132.0 76.65,138.0 78.65,138.0 78.65,136.5 
82.0,136.5 82.0,150.0 85.0,150.0 85.0,175.0 60.0,175.0 60.0,172.0 
46.5,172.0 46.5,168.65 48.0,168.65 48.0,166.65 42.0,166.65 42.0,168.65 
43.5,168.65 43.5,172.0 30.0,172.0 30.0,175.0 5,175.0 5,150.0 
8.0,150.0 8.0,136.5 11.35,136.5 11.35,138.0 13.35,138.0 13.35,132.0 
11.35,132.0 11.35,133.5 8.0,133.5 8.0,120.0 5,120.0 5,95.0"
stroke="black" stroke-width="1" fill="none" />
<polyline points="98.0,95.0 172.0,95.0 172.0,120.0 175.0,120.0 175.0,133.5 
171.0,133.5 171.0,136.5 175.0,136.5 175.0,150.0 172.0,150.0 172.0,175.0 
150.0,175.0 150.0,172.0 136.5,172.0 136.5,168.65 138.0,168.65 138.0,166.65 
132.0,166.65 132.0,168.65 133.5,168.65 133.5,172.0 120.0,172.0 120.0,175.0 
98.0,175.0 98.0,150.0 95.0,150.0 95.0,136.5 99.0,136.5 99.0,133.5 
95.0,133.5 95.0,120.0 98.0,120.0 98.0,95.0" stroke="black" stroke-width="1" fill="none" /> 
<polyline points="188.0,98.0 210.0,98.0 210.0,95.0 223.5,95.0 223.5,99.0 
226.5,99.0 226.5,95.0 240.0,95.0 240.0,98.0 262.0,98.0 262.0,120.0 
265.0,120.0 265.0,133.5 261.0,133.5 261.0,136.5 265.0,136.5 265.0,150.0 
262.0,150.0 262.0,172.0 240.0,172.0 240.0,175.0 226.5,175.0 226.5,171.0 
223.5,171.0 223.5,175.0 210.0,175.0 210.0,172.0 188.0,172.0 188.0,150.0 
185.0,150.0 185.0,136.5 189.0,136.5 189.0,133.5 185.0,133.5 185.0,120.0 
188.0,120.0 188.0,98.0" 
stroke="black" stroke-width="1" fill="none" />
<polyline points="185.0,5 267.0,5 267.0,87.0 185.0,87.0 185.0,5" 
stroke="black" stroke-width="1" fill="none" />
</svg>